<svg xmlns="http://www.w3.org/2000/svg" viewBox="0 0 800 800" width="800" height="800">
<defs>
<radialGradient id="cutouttee-bg" cx="50%" cy="38%" r="75%">
<stop offset="0" stop-color="#4a0714"/>
<stop offset="0.42" stop-color="#15040b"/>
<stop offset="1" stop-color="#030305"/>
</radialGradient>
<linearGradient id="cutouttee-fab" x1="0" y1="0" x2="0.3" y2="1">
<stop offset="0" stop-color="#1f1f27"/>
<stop offset="0.55" stop-color="#121218"/>
<stop offset="1" stop-color="#08080c"/>
</linearGradient>
<linearGradient id="cutouttee-beam" x1="0" y1="0" x2="0" y2="1">
<stop offset="0" stop-color="#FF173D" stop-opacity="0.55"/>
<stop offset="1" stop-color="#FF173D" stop-opacity="0"/>
</linearGradient>
<radialGradient id="cutouttee-halo" cx="50%" cy="50%" r="50%">
<stop offset="0" stop-color="#FF173D" stop-opacity="0.55"/>
<stop offset="1" stop-color="#FF173D" stop-opacity="0"/>
</radialGradient>
<filter id="cutouttee-glow" x="-30%" y="-30%" width="160%" height="160%">
<feGaussianBlur stdDeviation="5" result="b"/>
<feMerge><feMergeNode in="b"/><feMergeNode in="b"/><feMergeNode in="SourceGraphic"/></feMerge>
</filter>
<filter id="cutouttee-soft" x="-50%" y="-50%" width="200%" height="200%">
<feGaussianBlur stdDeviation="18"/>
</filter>
</defs><g>
<ellipse cx="400" cy="712" rx="230" ry="18" fill="#000" opacity="0.6" filter="url(#cutouttee-soft)"/>
<path d="M 262 150 L 334 124 Q 400 166 466 124 L 538 150 L 668 236 L 614 346 L 560 318 L 566 694 Q 400 716 234 694 L 240 318 L 186 346 L 132 236 Z" fill="url(#cutouttee-fab)" stroke="#2a2a33" stroke-width="2"/>
<path d="M 334 124 Q 400 176 466 124" fill="none" stroke="#2f2f39" stroke-width="10"/>
<path d="M 240 318 L 262 150 M 560 318 L 538 150" stroke="#000" stroke-opacity="0.35" stroke-width="3"/>
<path d="M 300 420 Q 320 560 300 690 M 500 430 Q 482 560 504 690" stroke="#000" stroke-opacity="0.25" stroke-width="6" fill="none"/>
<g>
<ellipse cx="400" cy="360" rx="139.4" ry="90.19999999999999" fill="url(#cutouttee-halo)"/>
<line x1="367.2" y1="360.0" x2="256.5" y2="360.0" stroke="#FF173D" stroke-opacity="0.35" stroke-width="1.1"/><line x1="368.8" y1="349.9" x2="263.5" y2="315.7" stroke="#FF173D" stroke-opacity="0.35" stroke-width="1.1"/><line x1="373.5" y1="340.7" x2="283.9" y2="275.7" stroke="#FF173D" stroke-opacity="0.35" stroke-width="1.1"/><line x1="380.7" y1="333.5" x2="315.7" y2="243.9" stroke="#FF173D" stroke-opacity="0.35" stroke-width="1.1"/><line x1="389.9" y1="328.8" x2="355.7" y2="223.5" stroke="#FF173D" stroke-opacity="0.35" stroke-width="1.1"/><line x1="400.0" y1="327.2" x2="400.0" y2="216.5" stroke="#FF173D" stroke-opacity="0.35" stroke-width="1.1"/><line x1="410.1" y1="328.8" x2="444.3" y2="223.5" stroke="#FF173D" stroke-opacity="0.35" stroke-width="1.1"/><line x1="419.3" y1="333.5" x2="484.3" y2="243.9" stroke="#FF173D" stroke-opacity="0.35" stroke-width="1.1"/><line x1="426.5" y1="340.7" x2="516.1" y2="275.7" stroke="#FF173D" stroke-opacity="0.35" stroke-width="1.1"/><line x1="431.2" y1="349.9" x2="536.5" y2="315.7" stroke="#FF173D" stroke-opacity="0.35" stroke-width="1.1"/><line x1="432.8" y1="360.0" x2="543.5" y2="360.0" stroke="#FF173D" stroke-opacity="0.35" stroke-width="1.1"/>
<g filter="url(#cutouttee-glow)"><path d="M 350.8 360 A 49.199999999999996 49.199999999999996 0 0 1 449.2 360" fill="none" stroke="#FF173D" stroke-width="5.2" opacity="0.95"/><path d="M 329.48 360 A 70.52 70.52 0 0 1 470.52 360" fill="none" stroke="#FF173D" stroke-width="3.9" opacity="0.77"/><path d="M 308.16 360 A 91.83999999999999 91.83999999999999 0 0 1 491.84 360" fill="none" stroke="#FF173D" stroke-width="2.6" opacity="0.59"/><path d="M 286.84000000000003 360 A 113.16 113.16 0 0 1 513.16 360" fill="none" stroke="#FF173D" stroke-width="1.3" opacity="0.41"/></g>
<g filter="url(#cutouttee-glow)">
<circle cx="400" cy="356.72" r="24.599999999999998" fill="none" stroke="#FF173D" stroke-width="3.0"/>
</g>
<circle cx="400" cy="356.72" r="19.7" fill="none" stroke="#ffffff" stroke-opacity="0.22" stroke-width="0.9"/>
<text x="400" y="365.1" font-family="Oswald, 'Arial Narrow', Impact, sans-serif" font-weight="700" font-size="23.4" fill="#ffffff" text-anchor="middle">C</text>
<g opacity="1"><path d="M 256.5 447.904 L 256.5 421.4 Q 258.5 408.7 260.7 404.7 A 4.6 5.1 0 1 1 267.8 404.7 Q 270.0 408.7 272.0 421.4 L 272.0 421.4 Q 274.0 396.2 275.2 392.1 A 4.6 5.1 0 1 1 282.4 392.1 Q 283.6 396.2 285.6 421.4 L 285.6 421.4 Q 287.6 396.4 288.9 392.4 A 4.6 5.1 0 1 1 296.0 392.4 Q 297.2 396.4 299.2 421.4 L 299.2 421.4 Q 301.2 409.6 305.5 405.5 A 4.6 5.1 0 1 1 312.6 405.5 Q 316.9 409.6 318.9 421.4 L 318.9 421.4 Q 320.9 404.0 323.2 399.9 A 4.6 5.1 0 1 1 330.4 399.9 Q 332.7 404.0 334.7 421.4 L 334.7 421.4 Q 336.7 393.6 341.7 389.5 A 4.6 5.1 0 1 1 348.8 389.5 Q 353.8 393.6 355.8 421.4 L 355.8 421.4 Q 357.8 403.5 363.0 399.4 A 4.6 5.1 0 1 1 370.1 399.4 Q 375.2 403.5 377.2 421.4 L 377.2 421.4 Q 379.2 393.6 380.7 389.6 A 4.6 5.1 0 1 1 387.8 389.6 Q 389.2 393.6 391.2 421.4 L 391.2 421.4 Q 393.2 396.7 396.4 392.7 A 4.6 5.1 0 1 1 403.5 392.7 Q 406.6 396.7 408.6 421.4 L 408.6 421.4 Q 410.6 408.0 414.6 403.9 A 4.6 5.1 0 1 1 421.7 403.9 Q 425.7 408.0 427.7 421.4 L 427.7 421.4 Q 429.7 393.2 435.1 389.1 A 4.6 5.1 0 1 1 442.2 389.1 Q 447.6 393.2 449.6 421.4 L 449.6 421.4 Q 451.6 402.2 453.4 398.1 A 4.6 5.1 0 1 1 460.6 398.1 Q 462.4 402.2 464.4 421.4 L 464.4 421.4 Q 466.4 393.7 470.5 389.6 A 4.6 5.1 0 1 1 477.6 389.6 Q 481.6 393.7 483.6 421.4 L 483.6 421.4 Q 485.6 403.5 489.2 399.4 A 4.6 5.1 0 1 1 496.3 399.4 Q 500.0 403.5 502.0 421.4 L 502.0 421.4 Q 504.0 405.6 507.6 401.5 A 4.6 5.1 0 1 1 514.7 401.5 Q 518.3 405.6 520.3 421.4 L 520.3 421.4 Q 522.3 395.9 525.9 391.9 A 4.6 5.1 0 1 1 533.0 391.9 Q 536.6 395.9 538.6 421.4 L 538.6 421.4 Q 540.6 407.3 542.8 403.2 A 4.6 5.1 0 1 1 549.9 403.2 Q 552.0 407.3 554.0 421.4 L 543.5 447.904 Z" fill="#07070a"/><path d="M 266.7 407.2 L 270.1 374.2" stroke="#07070a" stroke-width="3.6" stroke-linecap="round"/><path d="M 340.6 407.2 L 343.8 379.5" stroke="#07070a" stroke-width="3.6" stroke-linecap="round"/><path d="M 377.8 407.2 L 377.1 359.8" stroke="#07070a" stroke-width="3.6" stroke-linecap="round"/><path d="M 451.8 407.2 L 444.7 358.5" stroke="#07070a" stroke-width="3.6" stroke-linecap="round"/><path d="M 522.2 407.2 L 515.4 359.4" stroke="#07070a" stroke-width="3.6" stroke-linecap="round"/></g>
</g>
<text x="400" y="486" font-family="Oswald, 'Arial Narrow', Impact, sans-serif" font-weight="700" font-size="44" letter-spacing="17" fill="#ffffff" text-anchor="middle">DESTINY</text>
<text x="400" y="512" font-family="Inter, Arial, sans-serif" font-weight="600" font-size="11" letter-spacing="6" fill="#d9d9e0" text-anchor="middle">SOUND MEETS SOUL</text>
</g></svg>
